<svg width="176" height="72" viewBox="0 0 176 72" fill="none" xmlns="http://www.w3.org/2000/svg">
<path d="M14.349 51.2783C14.7948 51.3189 15.3015 51.3594 15.869 51.3999C16.477 51.3999 17.1863 51.3999 17.997 51.3999C22.7394 51.3999 26.2456 50.2042 28.5155 47.8127C30.8259 45.4212 31.9811 42.1177 31.9811 37.9022C31.9811 33.484 30.8867 30.14 28.6979 27.8701C26.5091 25.6002 23.0434 24.4652 18.301 24.4652C17.6525 24.4652 16.9837 24.4855 16.2946 24.526C15.6055 24.526 14.957 24.5666 14.349 24.6476V51.2783ZM41.7701 37.9022C41.7701 41.5502 41.2026 44.7321 40.0676 47.4479C38.9327 50.1636 37.3113 52.4133 35.2036 54.1967C33.1364 55.9802 30.603 57.3178 27.6035 58.2096C24.604 59.1013 21.2397 59.5472 17.5106 59.5472C15.8082 59.5472 13.822 59.4661 11.5521 59.304C9.28223 59.1824 7.05288 58.8987 4.86405 58.4528V17.4124C7.05288 17.007 9.32277 16.7435 11.6737 16.6219C14.0652 16.4598 16.1122 16.3787 17.8146 16.3787C21.4221 16.3787 24.6851 16.7841 27.6035 17.5948C30.5625 18.4054 33.0958 19.6822 35.2036 21.4252C37.3113 23.1681 38.9327 25.3975 40.0676 28.1133C41.2026 30.829 41.7701 34.092 41.7701 37.9022Z" fill="black"/>
<path d="M77.1156 16.8651V24.9516H64.4083V59H54.9234V24.9516H42.216V16.8651H77.1156Z" fill="black"/>
<path d="M78.3104 54.6688C77.4997 54.6688 76.8512 54.3445 76.3648 53.696C75.9189 53.0475 75.696 52.2368 75.696 51.264C75.696 50.4128 75.8987 49.5008 76.304 48.5279C76.7093 47.5146 77.2363 46.5013 77.8848 45.4879C78.5334 44.5556 79.4656 43.6436 80.6817 42.7519C81.8977 41.8601 83.0731 41.394 84.2081 41.3535C84.654 41.3535 85.0593 41.4345 85.4241 41.5967C85.8294 41.7183 86.1334 41.9412 86.3361 42.2655C86.5388 40.2388 86.9036 38.1108 87.4305 35.8814C87.9575 33.6115 88.6263 31.4632 89.4369 29.4365C90.8962 25.7885 92.7607 22.9511 95.0306 20.9244C96.2466 19.83 97.4221 19.2828 98.557 19.2828C99.3272 19.2828 99.9352 19.5868 100.381 20.1948C100.867 20.7623 101.111 21.6338 101.111 22.8093C101.111 23.9847 100.786 25.5048 100.138 27.3693C99.5299 29.1933 98.4962 31.3619 97.037 33.875C96.6317 34.5235 95.9426 35.5369 94.9698 36.915C94.0375 38.2932 92.9228 39.8334 91.6258 41.5359C90.3692 43.1977 89.0721 44.8394 87.7345 46.4607C87.694 48.2442 87.8359 49.8453 88.1601 51.264C88.4844 52.6421 89.1532 53.3312 90.1666 53.3312C90.2882 53.3312 90.4098 53.3312 90.5314 53.3312C90.653 53.2907 90.7746 53.2501 90.8962 53.2096C91.7474 52.9259 92.5783 52.3989 93.389 51.6288C94.1997 50.8586 94.9495 50.0074 95.6386 49.0751C96.3277 48.1429 96.8952 47.3322 97.341 46.6431C97.5032 46.481 97.6045 46.3999 97.645 46.3999C97.7666 46.3999 97.8274 46.5013 97.8274 46.7039C97.8274 46.9066 97.7666 47.1093 97.645 47.3119C96.8344 48.6901 95.8007 50.048 94.5442 51.3856C93.2877 52.7232 92.0919 53.6149 90.957 54.0608C90.5111 54.2229 90.0855 54.304 89.6801 54.304C88.5452 54.304 87.6737 53.7163 87.0657 52.5408C86.4982 51.3653 86.174 49.9872 86.0929 48.4063C84.8769 49.7845 83.7217 51.0208 82.6273 52.1152C81.5329 53.1691 80.6208 53.8784 79.8912 54.2432C79.3238 54.5269 78.7968 54.6688 78.3104 54.6688ZM87.7953 45.0015C89.0519 43.4612 90.2476 41.9209 91.3826 40.3807C92.5175 38.8404 93.5106 37.4622 94.3618 36.2462C95.2535 34.9897 95.8818 34.0574 96.2466 33.4494C97.6653 31.0174 98.6786 28.9299 99.2867 27.1869C99.8947 25.444 100.199 24.0455 100.199 22.9917C100.199 21.3298 99.6515 20.4988 98.557 20.4988C97.7058 20.4988 96.7736 21.0055 95.7602 22.0189C95.0306 22.7485 94.2199 23.8631 93.3282 25.3629C92.477 26.8221 91.7068 28.4435 91.0178 30.2269C90.126 32.4968 89.3761 34.9289 88.7681 37.523C88.6465 38.05 88.4641 39.0228 88.2209 40.4415C88.0183 41.8196 87.8764 43.3396 87.7953 45.0015ZM78.0672 53.9392C78.4726 53.9392 78.9387 53.7973 79.4656 53.5136C80.1952 53.1488 81.1478 52.3786 82.3233 51.2032C83.4987 49.9872 84.735 48.609 86.0321 47.0687C86.0321 45.8527 86.0929 44.5556 86.2145 43.1775C86.0524 43.0153 85.8497 42.8735 85.6065 42.7519C85.4038 42.6303 85.2214 42.5492 85.0593 42.5087C84.9377 42.4681 84.735 42.4479 84.4513 42.4479C83.7622 42.4884 83.0326 42.8329 82.2625 43.4815C81.4923 44.0895 80.7425 44.8394 80.0128 45.7311C79.3238 46.6229 78.7158 47.5349 78.1888 48.4671C77.2971 50.0885 76.8512 51.3856 76.8512 52.3584C76.8512 53.4123 77.2565 53.9392 78.0672 53.9392ZM103.972 36.4894C103.404 36.4894 103.06 36.1449 102.938 35.4558C102.897 35.1315 103.1 34.8073 103.546 34.483C103.992 34.1587 104.357 33.9358 104.64 33.8142C104.843 33.7331 105.005 33.6723 105.127 33.6318C105.248 33.5912 105.35 33.571 105.431 33.571C105.715 33.571 105.856 33.7128 105.856 33.9966C105.856 34.3209 105.735 34.7059 105.492 35.1518C105.289 35.5977 105.188 35.8206 105.188 35.8206C105.147 35.9827 105.005 36.1449 104.762 36.307C104.519 36.4286 104.255 36.4894 103.972 36.4894ZM97.8916 54.4256C97.162 54.4256 96.635 54.1824 96.3107 53.696C95.9865 53.2096 95.8243 52.6016 95.8243 51.872C95.8243 51.3045 95.8851 50.7573 96.0067 50.2304C96.0878 49.9872 96.2905 49.3791 96.6147 48.4063C96.9796 47.4335 97.4457 46.3594 98.0132 45.1839C98.6212 44.0084 99.2697 42.9951 99.9588 42.1439C100.648 41.2521 101.357 40.8063 102.087 40.8063C102.411 40.8063 102.573 40.8873 102.573 41.0495C102.573 41.2116 102.492 41.3737 102.33 41.5359C101.519 42.5087 100.749 43.6639 100.02 45.0015C99.3305 46.2986 98.7428 47.5349 98.2564 48.7103C97.8105 49.8858 97.547 50.7776 97.466 51.3856C97.3444 52.6827 97.7294 53.3312 98.6212 53.3312C98.7428 53.3312 98.8644 53.3312 98.986 53.3312C99.1076 53.2907 99.2494 53.2501 99.4116 53.2096C100.263 52.9259 101.094 52.3989 101.904 51.6288C102.715 50.8586 103.465 50.0074 104.154 49.0751C104.843 48.1429 105.411 47.3322 105.856 46.6431C106.019 46.481 106.12 46.3999 106.16 46.3999C106.282 46.3999 106.343 46.5013 106.343 46.7039C106.343 46.9066 106.282 47.1093 106.16 47.3119C105.269 48.6901 104.215 50.048 102.999 51.3856C101.823 52.7232 100.648 53.6149 99.4724 54.0608C98.8644 54.304 98.3374 54.4256 97.8916 54.4256ZM103.585 71.2066C102.451 71.2066 101.64 70.8215 101.153 70.0514C100.91 69.6055 100.789 69.1394 100.789 68.653C100.789 68.126 100.89 67.5788 101.093 67.0113C101.295 66.4844 101.559 65.9372 101.883 65.3697C102.451 64.4374 103.119 63.5254 103.889 62.6337C104.66 61.742 105.409 60.9313 106.139 60.2017C106.909 59.4721 107.537 58.9046 108.024 58.4992C108.875 57.8102 109.868 56.9995 111.003 56.0672C112.179 55.1349 113.374 54.3445 114.59 53.696C114.671 53.6555 114.753 53.6352 114.834 53.6352C114.955 53.6352 115.016 53.696 115.016 53.8176C115.016 54.0608 114.915 54.2229 114.712 54.304C114.185 54.5877 113.516 55.0133 112.706 55.5808C111.895 56.1888 111.104 56.7968 110.334 57.4048C109.564 58.0534 108.895 58.6209 108.328 59.1073C107.923 59.4721 107.375 60.0193 106.686 60.7489C105.997 61.4785 105.308 62.2892 104.619 63.1809C103.889 64.1132 103.281 65.0455 102.795 65.9777C102.633 66.302 102.451 66.7276 102.248 67.2545C102.045 67.822 101.944 68.349 101.944 68.8354C101.944 69.2407 102.065 69.565 102.309 69.8082C102.511 70.0919 102.876 70.2338 103.403 70.2338C104.254 70.2338 105.105 69.9298 105.957 69.3218C106.848 68.7543 107.679 68.045 108.449 67.1937C109.26 66.3425 109.99 65.4711 110.638 64.5793C111.287 63.7281 111.794 62.9782 112.158 62.3297C113.618 59.9382 114.753 57.2832 115.563 54.3648C116.414 51.4869 116.739 48.7914 116.536 46.2783C116.495 45.9946 116.455 45.7311 116.414 45.4879C116.374 45.2042 116.313 44.9204 116.232 44.6367C116.151 44.7583 116.07 44.8799 115.989 45.0015C115.908 45.1231 115.806 45.265 115.685 45.4271C115.401 46.0351 115.016 46.7242 114.53 47.4943C114.043 48.2239 113.577 48.8927 113.131 49.5008C112.726 50.1088 112.442 50.5141 112.28 50.7168C111.307 51.8922 110.395 52.7435 109.544 53.2704C108.733 53.7973 108.024 54.0608 107.416 54.0608C106.605 54.0608 105.977 53.7163 105.531 53.0272C105.085 52.2976 104.862 51.4261 104.862 50.4128C104.862 48.5482 105.572 46.481 106.99 44.2111C107.679 43.1572 108.632 42.1844 109.848 41.2927C111.064 40.3604 112.26 39.8942 113.435 39.8942C114.408 39.8942 115.239 40.2996 115.928 41.1103C116.05 41.2724 116.07 41.4751 115.989 41.7183C115.948 41.9209 115.847 41.9412 115.685 41.7791C115.523 41.5359 115.259 41.3737 114.894 41.2927C114.57 41.2116 114.246 41.1711 113.922 41.1711C112.908 41.1711 111.976 41.5359 111.125 42.2655C110.274 42.9545 109.524 43.7855 108.875 44.7583C108.267 45.6906 107.76 46.5621 107.355 47.3727C106.463 49.1562 106.017 50.5749 106.017 51.6288C106.017 52.7232 106.423 53.2704 107.233 53.2704C107.76 53.2704 108.389 53.0272 109.118 52.5408C109.888 52.0138 110.719 51.1829 111.611 50.048C111.814 49.8048 112.158 49.3589 112.645 48.7103C113.131 48.0213 113.658 47.2106 114.226 46.2783C114.793 45.346 115.279 44.434 115.685 43.5423C115.685 43.5018 115.685 43.4815 115.685 43.4815C115.725 43.4815 115.746 43.4612 115.746 43.4207C115.705 43.3802 115.644 43.2788 115.563 43.1167V43.0559C115.563 42.8937 115.746 42.8127 116.11 42.8127C116.435 42.8127 116.678 42.8937 116.84 43.0559C117.326 43.4612 117.671 44.0895 117.874 44.9407C118.117 45.7514 118.238 46.6837 118.238 47.7375C118.238 49.1157 118.076 50.6154 117.752 52.2368C117.428 53.8176 117.002 55.3579 116.475 56.8576C115.989 58.3574 115.421 59.695 114.773 60.8705C114.043 62.3297 113.172 63.7281 112.158 65.0657C111.186 66.4439 110.132 67.6396 108.997 68.653C107.902 69.6663 106.808 70.3756 105.713 70.781C104.984 71.0647 104.275 71.2066 103.585 71.2066ZM127.781 36.4894C127.214 36.4894 126.869 36.1449 126.748 35.4558C126.707 35.1315 126.91 34.8073 127.356 34.483C127.802 34.1587 128.166 33.9358 128.45 33.8142C128.653 33.7331 128.815 33.6723 128.936 33.6318C129.058 33.5912 129.159 33.571 129.24 33.571C129.524 33.571 129.666 33.7128 129.666 33.9966C129.666 34.3209 129.544 34.7059 129.301 35.1518C129.099 35.5977 128.997 35.8206 128.997 35.8206C128.957 35.9827 128.815 36.1449 128.572 36.307C128.328 36.4286 128.065 36.4894 127.781 36.4894ZM121.701 54.4256C120.972 54.4256 120.445 54.1824 120.12 53.696C119.796 53.2096 119.634 52.6016 119.634 51.872C119.634 51.3045 119.695 50.7573 119.816 50.2304C119.897 49.9872 120.1 49.3791 120.424 48.4063C120.789 47.4335 121.255 46.3594 121.823 45.1839C122.431 44.0084 123.079 42.9951 123.768 42.1439C124.457 41.2521 125.167 40.8063 125.896 40.8063C126.221 40.8063 126.383 40.8873 126.383 41.0495C126.383 41.2116 126.302 41.3737 126.14 41.5359C125.329 42.5087 124.559 43.6639 123.829 45.0015C123.14 46.2986 122.552 47.5349 122.066 48.7103C121.62 49.8858 121.357 50.7776 121.276 51.3856C121.154 52.6827 121.539 53.3312 122.431 53.3312C122.552 53.3312 122.674 53.3312 122.796 53.3312C122.917 53.2907 123.059 53.2501 123.221 53.2096C124.072 52.9259 124.903 52.3989 125.714 51.6288C126.525 50.8586 127.275 50.0074 127.964 49.0751C128.653 48.1429 129.22 47.3322 129.666 46.6431C129.828 46.481 129.93 46.3999 129.97 46.3999C130.092 46.3999 130.152 46.5013 130.152 46.7039C130.152 46.9066 130.092 47.1093 129.97 47.3119C129.078 48.6901 128.024 50.048 126.808 51.3856C125.633 52.7232 124.457 53.6149 123.282 54.0608C122.674 54.304 122.147 54.4256 121.701 54.4256ZM130.01 54.4256C129.28 54.4256 128.753 54.1824 128.429 53.696C128.104 53.2096 127.942 52.6016 127.942 51.872C127.942 51.3045 128.003 50.7573 128.125 50.2304C128.246 49.6629 128.631 48.7306 129.28 47.4335C129.928 46.0959 130.638 44.6975 131.408 43.2383C131.003 43.4004 130.557 43.5828 130.07 43.7855C129.624 43.9476 129.3 44.13 129.097 44.3327C128.935 44.4138 128.834 44.4543 128.793 44.4543C128.672 44.4543 128.611 44.3732 128.611 44.2111C128.611 43.8463 128.834 43.5018 129.28 43.1775C129.726 42.8532 130.151 42.6303 130.557 42.5087C131.003 42.3871 131.509 42.2452 132.077 42.0831C132.523 41.2724 132.989 40.4415 133.475 39.5902C134.002 38.6985 134.468 37.9284 134.874 37.2798C135.157 36.8745 135.563 36.3678 136.09 35.7598C136.617 35.1113 137.204 34.5843 137.853 34.179C138.218 33.9358 138.704 33.8142 139.312 33.8142C139.758 33.8142 140.001 33.8952 140.042 34.0574C139.434 34.2195 138.805 34.6249 138.157 35.2734C137.549 35.9219 136.961 36.6718 136.394 37.523C135.826 38.3742 135.34 39.1849 134.934 39.955C134.529 40.6847 134.225 41.2521 134.022 41.6575C134.874 41.5359 135.583 41.4751 136.15 41.4751C136.475 41.4751 136.758 41.4953 137.002 41.5359C137.245 41.5359 137.447 41.5561 137.61 41.5967C137.934 41.6372 138.096 41.7385 138.096 41.9007C138.096 42.0628 137.893 42.1439 137.488 42.1439C137.164 42.1439 136.779 42.1439 136.333 42.1439C135.927 42.1439 135.482 42.1844 134.995 42.2655C134.63 42.306 134.245 42.4276 133.84 42.6303C133.475 42.8329 133.232 43.0559 133.11 43.2991C132.219 44.9204 131.428 46.481 130.739 47.9807C130.05 49.4805 129.665 50.6154 129.584 51.3856C129.462 52.6827 129.847 53.3312 130.739 53.3312C131.631 53.3312 132.523 52.9461 133.414 52.176C134.347 51.3653 135.218 50.433 136.029 49.3791C136.839 48.3253 137.488 47.4335 137.974 46.7039C138.137 46.5418 138.238 46.4607 138.278 46.4607C138.4 46.4607 138.461 46.5621 138.461 46.7647C138.461 46.9269 138.4 47.1093 138.278 47.3119C137.589 48.3658 136.799 49.44 135.907 50.5344C135.015 51.6288 134.063 52.5611 133.05 53.3312C132.077 54.0608 131.063 54.4256 130.01 54.4256ZM147.685 54.4256C146.956 54.4256 146.409 54.1824 146.044 53.696C145.72 53.2096 145.557 52.5813 145.557 51.8112C145.557 51.2842 145.618 50.7573 145.74 50.2304C145.78 50.1493 145.841 49.9669 145.922 49.6832C146.003 49.3589 146.125 48.9941 146.287 48.5887C145.72 49.4805 144.99 50.4736 144.098 51.568C143.247 52.6219 142.294 53.4123 141.241 53.9392C140.633 54.2229 140.025 54.3648 139.417 54.3648C138.606 54.3648 137.957 54.0608 137.471 53.4528C136.984 52.8043 136.741 51.9125 136.741 50.7776C136.741 49.8453 136.944 48.8522 137.349 47.7983C137.755 46.7039 138.342 45.5892 139.113 44.4543C139.599 43.7247 140.227 43.0153 140.997 42.3263C141.767 41.6372 142.598 41.0697 143.49 40.6239C144.382 40.178 145.233 39.955 146.044 39.955C146.854 39.955 147.544 40.178 148.111 40.6239C148.678 41.0697 148.982 41.7385 149.023 42.6303C149.023 42.7519 148.962 42.8532 148.841 42.9343C148.76 42.9748 148.678 42.914 148.597 42.7519C148.111 41.6575 147.321 41.1103 146.226 41.1103C145.497 41.1103 144.726 41.4548 143.916 42.1439C143.105 42.7924 142.315 43.6234 141.545 44.6367C140.774 45.65 140.106 46.6634 139.538 47.6767C139.052 48.5685 138.687 49.3792 138.444 50.1088C138.241 50.8384 138.14 51.4666 138.14 51.9936C138.14 53.088 138.565 53.6352 139.417 53.6352C139.862 53.6352 140.349 53.4933 140.876 53.2096C141.362 52.9259 141.95 52.4192 142.639 51.6896C143.369 50.96 144.078 50.1493 144.767 49.2575C145.497 48.3658 146.145 47.4943 146.713 46.6431C147.321 45.7919 147.766 45.1231 148.05 44.6367C148.658 43.6234 149.286 42.7316 149.935 41.9615C150.584 41.1913 151.232 40.8063 151.881 40.8063C152.205 40.8063 152.367 40.8873 152.367 41.0495C152.367 41.2116 152.286 41.3737 152.124 41.5359C151.313 42.5087 150.543 43.6639 149.813 45.0015C149.124 46.2986 148.537 47.5349 148.05 48.7103C147.604 49.8858 147.341 50.7776 147.26 51.3856C147.138 52.6827 147.523 53.3312 148.415 53.3312C148.537 53.3312 148.658 53.3312 148.78 53.3312C148.901 53.2907 149.043 53.2501 149.205 53.2096C150.057 52.9259 150.888 52.3989 151.698 51.6288C152.509 50.8586 153.259 50.0277 153.948 49.1359C154.637 48.2037 155.204 47.393 155.65 46.7039C155.772 46.5418 155.873 46.4607 155.954 46.4607C156.076 46.4607 156.137 46.5621 156.137 46.7647C156.137 46.8863 156.076 47.0485 155.954 47.2511C155.671 47.6565 155.407 48.0618 155.164 48.4671C154.921 48.8319 154.677 49.1765 154.434 49.5008C154.353 49.6629 154.252 49.8048 154.13 49.9264C154.009 50.048 153.887 50.1898 153.765 50.352C153.239 51.0005 152.549 51.7098 151.698 52.48C150.888 53.2096 150.077 53.7365 149.266 54.0608C148.658 54.304 148.131 54.4256 147.685 54.4256ZM159.238 54.4864C158.266 54.4864 157.496 54.1824 156.928 53.5744C156.361 52.9259 155.976 52.1152 155.773 51.1424C155.57 50.1696 155.489 49.1765 155.53 48.1631C155.651 46.4202 156.036 44.434 156.685 42.2047C157.333 39.9753 158.164 37.7054 159.178 35.395C160.232 33.044 161.387 30.8349 162.643 28.7677C163.94 26.7005 165.298 24.917 166.717 23.4173C168.136 21.9175 169.534 20.8839 170.912 20.3164C171.358 20.1138 171.743 19.9922 172.067 19.9516C172.392 19.8706 172.696 19.83 172.979 19.83C173.952 19.83 174.601 20.2962 174.925 21.2284C175.087 21.5527 175.168 21.9581 175.168 22.4445C175.168 23.4173 174.844 24.5522 174.195 25.8493C173.628 27.0248 172.817 28.3624 171.763 29.8621C170.71 31.3214 169.514 32.8211 168.176 34.3614C166.879 35.8611 165.562 37.3204 164.224 38.739C162.887 40.1172 161.65 41.3535 160.515 42.4479C159.38 43.5423 158.468 44.3732 157.779 44.9407C157.536 46.2783 157.414 47.5349 157.414 48.7103C157.414 49.9669 157.617 51.0613 158.022 51.9936C158.468 52.9259 159.198 53.392 160.211 53.392C161.184 53.392 162.137 53.0069 163.069 52.2368C164.001 51.4666 164.852 50.5546 165.623 49.5008C166.433 48.4469 167.102 47.5146 167.629 46.7039C167.791 46.5418 167.892 46.4607 167.933 46.4607C168.055 46.4607 168.115 46.5621 168.115 46.7647C168.115 46.9269 168.055 47.1093 167.933 47.3119C167.203 48.4469 166.393 49.5616 165.501 50.656C164.609 51.7504 163.636 52.6624 162.583 53.392C161.529 54.1216 160.414 54.4864 159.238 54.4864ZM158.022 43.9071C158.914 43.0964 160.069 41.9412 161.488 40.4415C162.947 38.9417 164.447 37.2798 165.987 35.4558C167.568 33.6318 169.007 31.8483 170.304 30.1053C171.601 28.3219 172.554 26.741 173.162 25.3629C173.405 24.8765 173.608 24.3495 173.77 23.7821C173.932 23.2146 174.013 22.6877 174.013 22.2013C174.013 21.3095 173.689 20.8636 173.04 20.8636C172.148 20.8636 170.953 21.573 169.453 22.9917C167.791 24.5319 166.19 26.4978 164.65 28.8893C163.109 31.2403 161.752 33.7331 160.576 36.3678C159.441 38.962 158.59 41.4751 158.022 43.9071Z" fill="black"/>
</svg>
